<svg xmlns="http://www.w3.org/2000/svg" width="239" height="239"><rect width="100%" height="100%" fill="#26468e"/><circle cx="20" cy="20" r="16.667" stroke="#222" opacity=".081" stroke-width="6.667" fill="none"/><circle cx="20" cy="20" r="8.333" fill="#ddd" fill-opacity=".107"/><circle cx="60" cy="20" r="16.667" stroke="#ddd" opacity=".141" stroke-width="6.667" fill="none"/><circle cx="60" cy="20" r="8.333" fill="#ddd" fill-opacity=".124"/><circle cx="100" cy="20" r="16.667" stroke="#222" opacity=".046" stroke-width="6.667" fill="none"/><circle cx="100" cy="20" r="8.333" fill="#ddd" fill-opacity=".124"/><circle cx="140" cy="20" r="16.667" stroke="#ddd" opacity=".107" stroke-width="6.667" fill="none"/><circle cx="140" cy="20" r="8.333" fill="#ddd" fill-opacity=".02"/><circle cx="180" cy="20" r="16.667" stroke="#ddd" opacity=".141" stroke-width="6.667" fill="none"/><circle cx="180" cy="20" r="8.333" fill="#ddd" fill-opacity=".037"/><circle cx="220" cy="20" r="16.667" stroke="#ddd" opacity=".055" stroke-width="6.667" fill="none"/><circle cx="220" cy="20" r="8.333" fill="#ddd" fill-opacity=".037"/><circle cx="20" cy="60" r="16.667" stroke="#ddd" opacity=".124" stroke-width="6.667" fill="none"/><circle cx="20" cy="60" r="8.333" fill="#ddd" fill-opacity=".089"/><circle cx="60" cy="60" r="16.667" stroke="#ddd" opacity=".072" stroke-width="6.667" fill="none"/><circle cx="60" cy="60" r="8.333" fill="#222" fill-opacity=".063"/><circle cx="100" cy="60" r="16.667" stroke="#ddd" opacity=".037" stroke-width="6.667" fill="none"/><circle cx="100" cy="60" r="8.333" fill="#222" fill-opacity=".15"/><circle cx="140" cy="60" r="16.667" stroke="#222" opacity=".029" stroke-width="6.667" fill="none"/><circle cx="140" cy="60" r="8.333" fill="#222" fill-opacity=".046"/><circle cx="180" cy="60" r="16.667" stroke="#222" opacity=".098" stroke-width="6.667" fill="none"/><circle cx="180" cy="60" r="8.333" fill="#222" fill-opacity=".081"/><circle cx="220" cy="60" r="16.667" stroke="#222" opacity=".046" stroke-width="6.667" fill="none"/><circle cx="220" cy="60" r="8.333" fill="#ddd" fill-opacity=".141"/><circle cx="20" cy="100" r="16.667" stroke="#ddd" opacity=".02" stroke-width="6.667" fill="none"/><circle cx="20" cy="100" r="8.333" fill="#ddd" fill-opacity=".037"/><circle cx="60" cy="100" r="16.667" stroke="#ddd" opacity=".141" stroke-width="6.667" fill="none"/><circle cx="60" cy="100" r="8.333" fill="#ddd" fill-opacity=".072"/><circle cx="100" cy="100" r="16.667" stroke="#222" opacity=".098" stroke-width="6.667" fill="none"/><circle cx="100" cy="100" r="8.333" fill="#ddd" fill-opacity=".055"/><circle cx="140" cy="100" r="16.667" stroke="#ddd" opacity=".089" stroke-width="6.667" fill="none"/><circle cx="140" cy="100" r="8.333" fill="#ddd" fill-opacity=".124"/><circle cx="180" cy="100" r="16.667" stroke="#222" opacity=".133" stroke-width="6.667" fill="none"/><circle cx="180" cy="100" r="8.333" fill="#222" fill-opacity=".029"/><circle cx="220" cy="100" r="16.667" stroke="#ddd" opacity=".055" stroke-width="6.667" fill="none"/><circle cx="220" cy="100" r="8.333" fill="#ddd" fill-opacity=".141"/><circle cx="20" cy="140" r="16.667" stroke="#222" opacity=".046" stroke-width="6.667" fill="none"/><circle cx="20" cy="140" r="8.333" fill="#ddd" fill-opacity=".089"/><circle cx="60" cy="140" r="16.667" stroke="#ddd" opacity=".089" stroke-width="6.667" fill="none"/><circle cx="60" cy="140" r="8.333" fill="#ddd" fill-opacity=".107"/><circle cx="100" cy="140" r="16.667" stroke="#ddd" opacity=".107" stroke-width="6.667" fill="none"/><circle cx="100" cy="140" r="8.333" fill="#ddd" fill-opacity=".089"/><circle cx="140" cy="140" r="16.667" stroke="#ddd" opacity=".089" stroke-width="6.667" fill="none"/><circle cx="140" cy="140" r="8.333" fill="#222" fill-opacity=".046"/><circle cx="180" cy="140" r="16.667" stroke="#ddd" opacity=".141" stroke-width="6.667" fill="none"/><circle cx="180" cy="140" r="8.333" fill="#ddd" fill-opacity=".055"/><circle cx="220" cy="140" r="16.667" stroke="#222" opacity=".029" stroke-width="6.667" fill="none"/><circle cx="220" cy="140" r="8.333" fill="#222" fill-opacity=".133"/><circle cx="20" cy="180" r="16.667" stroke="#ddd" opacity=".124" stroke-width="6.667" fill="none"/><circle cx="20" cy="180" r="8.333" fill="#ddd" fill-opacity=".089"/><circle cx="60" cy="180" r="16.667" stroke="#ddd" opacity=".055" stroke-width="6.667" fill="none"/><circle cx="60" cy="180" r="8.333" fill="#222" fill-opacity=".098"/><circle cx="100" cy="180" r="16.667" stroke="#ddd" opacity=".072" stroke-width="6.667" fill="none"/><circle cx="100" cy="180" r="8.333" fill="#ddd" fill-opacity=".141"/><circle cx="140" cy="180" r="16.667" stroke="#ddd" opacity=".037" stroke-width="6.667" fill="none"/><circle cx="140" cy="180" r="8.333" fill="#ddd" fill-opacity=".02"/><circle cx="180" cy="180" r="16.667" stroke="#ddd" opacity=".141" stroke-width="6.667" fill="none"/><circle cx="180" cy="180" r="8.333" fill="#222" fill-opacity=".046"/><circle cx="220" cy="180" r="16.667" stroke="#222" opacity=".081" stroke-width="6.667" fill="none"/><circle cx="220" cy="180" r="8.333" fill="#222" fill-opacity=".098"/><circle cx="20" cy="220" r="16.667" stroke="#222" opacity=".046" stroke-width="6.667" fill="none"/><circle cx="20" cy="220" r="8.333" fill="#222" fill-opacity=".029"/><circle cx="60" cy="220" r="16.667" stroke="#222" opacity=".15" stroke-width="6.667" fill="none"/><circle cx="60" cy="220" r="8.333" fill="#ddd" fill-opacity=".037"/><circle cx="100" cy="220" r="16.667" stroke="#222" opacity=".063" stroke-width="6.667" fill="none"/><circle cx="100" cy="220" r="8.333" fill="#ddd" fill-opacity=".072"/><circle cx="140" cy="220" r="16.667" stroke="#ddd" opacity=".089" stroke-width="6.667" fill="none"/><circle cx="140" cy="220" r="8.333" fill="#ddd" fill-opacity=".124"/><circle cx="180" cy="220" r="16.667" stroke="#ddd" opacity=".037" stroke-width="6.667" fill="none"/><circle cx="180" cy="220" r="8.333" fill="#ddd" fill-opacity=".055"/><circle cx="220" cy="220" r="16.667" stroke="#ddd" opacity=".037" stroke-width="6.667" fill="none"/><circle cx="220" cy="220" r="8.333" fill="#ddd" fill-opacity=".141"/></svg>